<svg version="1.1" viewBox="0.0 0.0 244.03937007874015 186.4750656167979" fill="none" stroke="none" stroke-linecap="square" stroke-miterlimit="10" xmlns:xlink="http://www.w3.org/1999/xlink" xmlns="http://www.w3.org/2000/svg"><clipPath id="p.0"><path d="m0 0l244.03937 0l0 186.47507l-244.03937 0l0 -186.47507z" clip-rule="nonzero"/></clipPath><g clip-path="url(#p.0)"><path fill="#000000" fill-opacity="0.0" d="m0 0l244.03937 0l0 186.47507l-244.03937 0z" fill-rule="evenodd"/><path fill="#ffe599" d="m17.346457 66.249344l106.267715 -59.02362l0 118.04725z" fill-rule="evenodd"/><path fill="#ffd966" d="m65.34646 66.249344l106.26771 -59.02362l0 118.04725z" fill-rule="evenodd"/><path fill="#f1c232" d="m113.34646 66.249344l106.26771 -59.02362l0 118.04725z" fill-rule="evenodd"/><path fill="#000000" fill-opacity="0.0" d="m35.58005 125.272964l187.87402 0l0 59.055115l-187.87402 0z" fill-rule="evenodd"/><path fill="#bf9000" d="m73.47068 161.78484q0.484375 0 0.765625 0.453125q0.28125 0.453125 0.28125 1.234375q0 1.453125 -0.703125 2.3125q-2.09375 2.5 -4.0625 3.515625q-1.953125 1.0 -4.71875 1.0q-1.9375038 0 -3.5781288 -0.484375q-1.640625 -0.484375 -4.0 -1.453125q-2.125 -0.9375 -4.109375 -1.53125q-1.890625 3.46875 -5.703125 3.46875q-2.09375 0 -3.34375 -0.953125q-1.25 -0.953125 -1.25 -2.4375q0 -1.84375 1.75 -3.046875q1.765625 -1.21875 4.671875 -1.21875l0.484375 0l0.671875 -10.859375q0.21875 -3.734375 1.34375 -6.15625q1.125 -2.421875 3.09375 -4.140625q1.71875 -1.5 3.921875 -2.265625q2.203125 -0.765625 4.671875 -0.765625q4.031254 0 6.187504 2.09375q2.171875 2.09375 2.171875 5.453125q0 2.265625 -0.828125 3.671875q-0.8125 1.40625 -2.265625 1.40625q-1.046875 0 -1.65625 -0.5q-0.59375 -0.515625 -0.59375 -1.453125q0 -0.328125 0.15625 -1.21875q0.21875 -1.046875 0.21875 -1.875q0 -1.5625 -0.921875 -2.46875q-0.90625 -0.921875 -2.7656288 -0.921875q-3.296875 0 -5.09375 2.140625q-1.78125 2.140625 -2.265625 6.734375l-0.859375 8.484375q-0.1875 1.78125 -0.484375 3.09375q2.390625 0.40625 5.96875 1.296875q2.09375 0.53125 3.203125 0.765625q1.1250038 0.21875 1.9843788 0.21875q2.171875 0 3.71875 -0.734375q1.546875 -0.734375 2.9375 -2.328125q0.4375 -0.53125 1.0 -0.53125zm2.3094025 8.515625q-2.125 0 -3.453125 -1.671875q-1.3125 -1.6875 -1.3125 -4.40625q0 -3.0 1.375 -5.65625q1.375 -2.671875 3.671875 -4.296875q2.296875 -1.625 4.875 -1.625q0.828125 0 1.09375 0.328125q0.28125 0.3125 0.46875 1.125q0.71875 -0.140625 1.578125 -0.140625q0.890625 0 1.375 0.453125q0.484375 0.4375 0.484375 1.25q0 0.859375 -0.375 3.0q-0.40625 2.265625 -0.640625 4.34375q-0.21875 2.0625 -0.21875 4.640625q0 1.421875 -0.578125 2.046875q-0.578125 0.609375 -1.875 0.609375q-1.28125 0 -1.890625 -0.609375q-0.609375 -0.625 -0.609375 -2.0l0.03125 -0.609375q-1.15625 3.21875 -4.0 3.21875zm1.46875 -3.765625q1.03125 0 1.890625 -1.453125q0.859375 -1.46875 1.53125 -5.203125l0.71875 -3.765625q-1.53125 0.046875 -2.84375 1.1875q-1.296875 1.125 -2.09375 3.0q-0.78125 1.859375 -0.78125 3.953125q0 1.125 0.421875 1.703125q0.4375 0.578125 1.15625 0.578125zm50.832054 -27.40625q1.15625 0.21875 1.734375 0.78125q0.578125 0.5625 0.578125 1.3125q0 1.234375 -0.6875 1.796875q-0.6875 0.546875 -2.1874924 0.4375q-3.359375 -0.25 -5.25 -0.34375q-1.875 -0.09375 -4.9375 -0.140625q-1.375 6.875 -2.53125 13.8125q-0.421875 2.546875 -0.875 5.890625q-0.4375 3.328125 -0.59375 5.390625q-0.0625 1.078125 -0.890625 1.65625q-0.8125 0.578125 -1.96875 0.578125q-1.234375 0 -1.90625 -0.59375q-0.671875 -0.609375 -0.671875 -1.578125q0 -0.890625 0.28125 -2.953125q0.28125 -2.078125 0.640625 -4.359375q0.421875 -2.28125 0.640625 -3.953125q0.40625 -2.84375 0.921875 -5.640625q0.53125 -2.796875 1.0625 -5.296875q0.109375 -0.5625 0.25 -1.28125q0.15625 -0.734375 0.34375 -1.625q-3.65625 0.109375 -5.75 0.59375q-2.09375 0.484375 -2.96875 1.359375q-0.875 0.875 -0.875 2.265625q0 1.265625 0.75 2.421875q0.140625 0.265625 0.140625 0.5625q0 0.703125 -0.84375 1.328125q-0.828125 0.609375 -1.734375 0.609375q-0.625 0 -1.03125 -0.375q-0.75 -0.640625 -1.234375 -1.8125q-0.484375 -1.171875 -0.484375 -2.671875q0 -3.171875 2.0625 -5.09375q2.078125 -1.921875 6.3125 -2.8125q4.234375 -0.890625 10.875 -0.890625q4.109375 0 6.546875 0.15625q2.453125 0.140625 4.2812424 0.46875zm-2.0553207 31.171875q-1.40625 0 -2.0 -1.484375q-0.578125 -1.5 -0.578125 -4.78125q0 -4.859375 1.390625 -9.21875q0.328125 -1.09375 1.09375 -1.59375q0.765625 -0.5 2.1562424 -0.5q0.734375 0 1.03125 0.1875q0.3125 0.1875 0.3125 0.703125q0 0.59375 -0.5625 2.6875q-0.375 1.5 -0.609375 2.625q-0.21875 1.109375 -0.35936737 2.75q1.2343674 -3.203125 2.7499924 -5.21875q1.53125 -2.015625 3.0 -2.875q1.484375 -0.859375 2.71875 -0.859375q2.421875 0 2.421875 2.421875q0 0.484375 -0.328125 2.359375q-0.296875 1.484375 -0.296875 1.859375q0 1.3125 0.921875 1.3125q1.046875 0 2.6875 -1.65625q0.5 -0.484375 1.015625 -0.484375q0.484375 0 0.765625 0.4375q0.28125 0.421875 0.28125 1.140625q0 1.375 -0.75 2.15625q-1.046875 1.09375 -2.453125 1.859375q-1.390625 0.765625 -2.953125 0.765625q-1.984375 0 -3.015625 -1.0q-1.015625 -1.015625 -1.015625 -2.734375q0 -0.5625 0.109375 -1.125q0.078125 -0.75 0.078125 -1.015625q0 -0.59375 -0.421875 -0.59375q-0.5625 0 -1.484375 1.25q-0.90625 1.25 -1.796875 3.3125q-0.890625 2.046875 -1.453125 4.328125q-0.40625 1.75 -0.9531174 2.375q-0.546875 0.609375 -1.703125 0.609375zm19.234337 -20.046875q-1.578125 0 -2.359375 -0.71875q-0.78125 -0.734375 -0.78125 -2.046875q0 -1.296875 1.015625 -2.171875q1.03125 -0.890625 2.5625 -0.890625q1.390625 0 2.25 0.671875q0.859375 0.671875 0.859375 1.90625q0 1.5 -0.984375 2.375q-0.96875 0.875 -2.5625 0.875zm-0.296875 20.046875q-2.4375 0 -3.546875 -1.71875q-1.09375 -1.71875 -1.09375 -4.546875q0 -1.6875 0.421875 -4.3125q0.4375 -2.640625 1.109375 -4.90625q0.34375 -1.203125 0.890625 -1.640625q0.5625 -0.453125 1.796875 -0.453125q1.90625 0 1.90625 1.265625q0 0.9375 -0.703125 4.328125q-0.90625 4.109375 -0.90625 5.5625q0 1.125 0.296875 1.71875q0.3125 0.59375 1.015625 0.59375q0.671875 0 1.671875 -0.921875q1.015625 -0.9375 2.6875 -2.953125q0.453125 -0.53125 1.015625 -0.53125q0.484375 0 0.765625 0.453125q0.28125 0.453125 0.28125 1.234375q0 1.484375 -0.71875 2.3125q-3.6875 4.515625 -6.890625 4.515625zm9.1827545 0q-2.328125 0 -3.703125 -1.671875q-1.375 -1.6875 -1.375 -4.40625q0 -3.0 1.375 -5.65625q1.375 -2.671875 3.671875 -4.296875q2.296875 -1.625 4.875 -1.625q0.828125 0 1.09375 0.328125q0.28125 0.3125 0.46875 1.125q0.796875 -0.140625 1.65625 -0.140625q1.828125 0 1.828125 1.296875q0 0.78125 -0.5625 3.734375q-0.859375 4.296875 -0.859375 5.96875q0 0.5625 0.28125 0.90625q0.28125 0.328125 0.71875 0.328125q0.71875 0 1.71875 -0.90625q1.015625 -0.921875 2.734375 -2.96875q0.4375 -0.53125 1.0 -0.53125q0.484375 0 0.765625 0.453125q0.28125 0.453125 0.28125 1.234375q0 1.484375 -0.703125 2.3125q-1.53125 1.90625 -3.25 3.21875q-1.71875 1.296875 -3.328125 1.296875q-1.234375 0 -2.265625 -0.84375q-1.015625 -0.84375 -1.546875 -2.296875q-1.9375 3.140625 -4.875 3.140625zm1.34375 -3.765625q0.8125 0 1.5625 -0.96875q0.75 -0.984375 1.078125 -2.578125l1.390625 -6.875q-1.578125 0.046875 -2.90625 1.1875q-1.3125 1.125 -2.109375 3.0q-0.78125 1.859375 -0.78125 3.953125q0 1.15625 0.46875 1.71875q0.46875 0.5625 1.296875 0.5625zm32.809906 -4.75q0.484375 0 0.765625 0.453125q0.28125 0.453125 0.28125 1.234375q0 1.484375 -0.71875 2.3125q-1.53125 1.859375 -3.359375 3.1875q-1.828125 1.328125 -3.625 1.328125q-2.828125 0 -4.328125 -3.328125q-1.5625 1.984375 -2.75 2.65625q-1.171875 0.671875 -2.734375 0.671875q-2.28125 0 -3.75 -1.6875q-1.46875 -1.703125 -1.46875 -4.4375q0 -2.984375 1.265625 -5.53125q1.265625 -2.5625 3.484375 -4.1875q2.21875 -1.625 4.984375 -1.921875q0.71875 -7.25 2.703125 -12.375q2.0 -5.140625 5.25 -5.140625q1.609375 0 2.671875 1.46875q1.0625 1.453125 1.0625 4.390625q0 4.1875 -2.0625 9.796875q-2.046875 5.59375 -5.484375 11.484375q0.15625 2.171875 0.65625 3.109375q0.5 0.921875 1.296875 0.921875q1.0 0 2.046875 -0.890625q1.046875 -0.90625 2.796875 -2.984375q0.453125 -0.53125 1.015625 -0.53125zm-4.40625 -23.109375q-0.71875 0 -1.421875 2.53125q-0.703125 2.515625 -1.21875 6.59375q-0.5 4.0625 -0.71875 8.5q4.171875 -9.109375 4.171875 -14.625q0 -1.421875 -0.25 -2.203125q-0.234375 -0.796875 -0.5625 -0.796875zm-10.75 27.859375q0.703125 0 1.40625 -0.578125q0.71875 -0.578125 1.796875 -2.15625q-0.375 -2.015625 -0.375 -4.515625q0 -0.890625 0.078125 -2.90625q-2.046875 0.625 -3.421875 2.734375q-1.359375 2.109375 -1.359375 4.6875q0 2.734375 1.875 2.734375zm17.085083 3.765625q-2.125 0 -3.453125 -1.671875q-1.3125 -1.6875 -1.3125 -4.40625q0 -3.0 1.375 -5.65625q1.375 -2.671875 3.671875 -4.296875q2.296875 -1.625 4.875 -1.625q0.828125 0 1.09375 0.328125q0.28125 0.3125 0.46875 1.125q0.71875 -0.140625 1.578125 -0.140625q0.890625 0 1.375 0.453125q0.484375 0.4375 0.484375 1.25q0 0.859375 -0.375 3.0q-0.40625 2.265625 -0.640625 4.34375q-0.21875 2.0625 -0.21875 4.640625q0 1.421875 -0.578125 2.046875q-0.578125 0.609375 -1.875 0.609375q-1.28125 0 -1.890625 -0.609375q-0.609375 -0.625 -0.609375 -2.0l0.03125 -0.609375q-1.15625 3.21875 -4.0 3.21875zm1.46875 -3.765625q1.03125 0 1.890625 -1.453125q0.859375 -1.46875 1.53125 -5.203125l0.71875 -3.765625q-1.53125 0.046875 -2.84375 1.1875q-1.296875 1.125 -2.09375 3.0q-0.78125 1.859375 -0.78125 3.953125q0 1.125 0.421875 1.703125q0.4375 0.578125 1.15625 0.578125z" fill-rule="nonzero"/></g></svg>